<?xml version="1.0" standalone="no"?>
<!DOCTYPE svg PUBLIC "-//W3C//DTD SVG 20010904//EN"
 "http://www.w3.org/TR/2001/REC-SVG-20010904/DTD/svg10.dtd">
<svg version="1.0" xmlns="http://www.w3.org/2000/svg"
 width="13287.000000pt" height="6379.000000pt" viewBox="0 0 13287.000000 6379.000000"
 preserveAspectRatio="xMidYMid meet">
<metadata>
Created by potrace 1.16, written by Peter Selinger 2001-2019
</metadata>
<g transform="translate(0.000000,6379.000000) scale(0.100000,-0.100000)"
fill="#000000" stroke="none">
<path d="M31015 63783 c-1133 -37 -2034 -105 -3035 -229 -5696 -703 -11103
-2953 -15665 -6518 -2068 -1616 -3944 -3491 -5565 -5566 -1754 -2242 -3218
-4741 -4307 -7350 -1390 -3328 -2195 -6833 -2397 -10430 -37 -649 -41 -834
-41 -1795 0 -961 4 -1146 41 -1795 275 -4903 1673 -9633 4112 -13915 2065
-3626 4853 -6850 8157 -9431 1955 -1528 4092 -2832 6325 -3859 3621 -1665
7485 -2626 11460 -2849 146 -9 391 -21 545 -28 414 -19 71166 -19 71580 0
1230 56 2186 144 3265 298 4926 703 9641 2576 13742 5457 3054 2146 5719 4811
7861 7860 3315 4717 5285 10225 5697 15927 63 875 75 1251 75 2335 0 961 -4
1146 -41 1795 -269 4795 -1615 9434 -3957 13640 -2085 3744 -4920 7055 -8317
9710 -1944 1520 -4091 2830 -6320 3855 -3624 1666 -7502 2630 -11470 2850
-151 8 -374 20 -495 27 -171 9 -8072 12 -35695 13 -19511 1 -35511 0 -35555
-2z m71185 -1061 c118 -6 305 -16 415 -22 6290 -332 12304 -2595 17313 -6514
1976 -1545 3793 -3362 5338 -5338 1828 -2336 3303 -4900 4389 -7628 1226
-3080 1933 -6278 2119 -9590 36 -632 41 -847 41 -1735 0 -1015 -13 -1420 -75
-2275 -423 -5819 -2534 -11435 -6072 -16153 -1018 -1357 -2141 -2626 -3358
-3796 -3914 -3759 -8734 -6430 -13935 -7721 -2053 -510 -3980 -783 -6220 -882
-429 -19 -71011 -19 -71440 0 -1427 63 -2608 184 -3890 398 -4822 805 -9411
2776 -13357 5735 -1358 1019 -2627 2142 -3797 3359 -2786 2901 -4981 6304
-6456 10010 -1226 3080 -1933 6278 -2119 9590 -36 632 -41 847 -41 1735 0
1015 13 1420 75 2275 423 5818 2534 11436 6071 16152 1019 1358 2139 2624
3359 3797 3896 3743 8681 6401 13875 7706 2174 547 4332 841 6660 908 50 2
16020 2 35490 2 26882 -1 35452 -4 35615 -13z"/>
<path d="M31249 60579 c-4556 -99 -9019 -1291 -13018 -3476 -2160 -1180 -4148
-2621 -5951 -4313 -382 -359 -996 -975 -1355 -1360 -3654 -3924 -6130 -8734
-7169 -13930 -485 -2424 -650 -4899 -496 -7405 340 -5508 2287 -10806 5612
-15273 1679 -2256 3694 -4271 5950 -5950 3856 -2871 8347 -4723 13054 -5386
1163 -164 2223 -249 3434 -276 596 -13 69654 -13 70250 0 493 11 755 22 1215
50 5510 341 10805 2286 15273 5612 2047 1524 3900 3328 5481 5337 2793 3549
4706 7688 5585 12081 520 2600 676 5327 456 7970 -378 4534 -1812 8857 -4223
12730 -1906 3063 -4397 5768 -7299 7928 -3856 2871 -8347 4723 -13054 5386
-1163 164 -2223 249 -3434 276 -513 11 -69787 11 -70311 -1z m70816 -437
c1052 -55 1660 -105 2436 -202 4012 -503 7875 -1879 11349 -4043 5135 -3199
9151 -7990 11388 -13587 1059 -2651 1698 -5391 1917 -8220 62 -807 79 -1292
79 -2195 0 -741 -6 -1014 -40 -1605 -264 -4708 -1712 -9257 -4232 -13295
-3071 -4920 -7616 -8820 -12937 -11100 -2832 -1213 -5799 -1944 -8855 -2180
-366 -28 -716 -48 -1150 -67 -436 -19 -70734 -19 -71170 0 -913 39 -1682 102
-2481 202 -4012 503 -7874 1879 -11349 4043 -4935 3074 -8841 7621 -11125
12952 -1213 2832 -1944 5799 -2180 8855 -62 807 -79 1292 -79 2195 0 741 6
1014 40 1605 264 4708 1712 9257 4232 13295 3071 4921 7615 8819 12937 11100
3306 1416 6801 2175 10410 2258 61 2 15966 2 35345 2 27168 -1 35288 -4 35465
-13z"/>
<path d="M20700 41800 l0 -9910 565 0 565 0 2 9198 3 9198 7236 -9196 7236
-9195 301 -3 302 -2 0 9910 0 9910 -565 0 -565 0 -2 -6744 -3 -6744 -5315
6744 -5315 6743 -2222 0 -2223 1 0 -9910z"/>
<path d="M100710 41745 l0 -9855 1510 0 1510 0 0 9855 0 9855 -1510 0 -1510 0
0 -9855z"/>
<path d="M96210 41715 l0 -9825 1510 0 1510 0 0 9825 0 9825 -1510 0 -1510 0
0 -9825z"/>
<path d="M54465 48040 l-1220 -1789 -1192 -1 -1193 0 0 -465 0 -465 1195 0
1195 0 0 -4582 c0 -3073 3 -4637 10 -4748 84 -1313 490 -2313 1205 -2963 837
-762 1863 -1137 3110 -1137 859 0 1636 192 2295 568 452 258 880 623 1167 998
505 659 810 1573 907 2719 21 240 36 554 36 736 l0 149 -525 0 -525 0 0 -89
c0 -329 -56 -917 -126 -1311 -218 -1237 -725 -2011 -1509 -2305 -220 -82 -443
-123 -721 -132 -952 -30 -1585 395 -1863 1250 -69 212 -109 405 -148 712 -17
132 -18 426 -20 5138 l-3 4997 2580 0 2580 0 0 465 0 465 -2580 0 -2580 0 0
1790 0 1790 -427 0 -428 -1 -1220 -1789z"/>
<path d="M87185 46519 c-1712 -59 -3133 -483 -4222 -1258 -870 -619 -1537
-1479 -1944 -2506 l-54 -136 -3 1801 -2 1800 -1650 0 -1650 0 0 -7185 0 -7185
1650 0 1650 0 3 4313 c3 4663 0 4326 52 4682 216 1460 1056 2786 2282 3597
683 453 1473 740 2293 833 473 53 1028 44 1590 -26 2007 -250 3383 -1298 3959
-3014 130 -390 222 -828 266 -1275 19 -194 35 -472 35 -611 l0 -106 -157 -12
c-1691 -132 -3213 -360 -4423 -662 -1525 -380 -2651 -877 -3488 -1540 -182
-143 -535 -489 -658 -645 -444 -557 -677 -1116 -766 -1834 -17 -141 -17 -640
1 -785 43 -360 127 -670 260 -965 305 -674 880 -1217 1627 -1540 464 -199 964
-314 1533 -351 236 -15 816 -7 1041 15 823 80 1552 288 2252 643 978 495 1776
1238 2323 2163 146 247 260 394 382 491 156 124 269 169 443 176 235 10 410
-59 580 -227 144 -144 252 -327 408 -695 49 -115 313 -753 587 -1417 l498
-1208 424 0 423 0 -3 4453 c-3 3248 -7 4482 -15 4562 -44 421 -83 680 -147
965 -182 815 -539 1589 -1018 2209 -1306 1690 -3581 2577 -6362 2480z m4255
-7131 c0 -163 -18 -552 -35 -783 -61 -793 -200 -1496 -416 -2105 -149 -419
-383 -880 -613 -1208 -520 -740 -1277 -1292 -2081 -1515 -300 -84 -504 -111
-825 -111 -369 0 -623 43 -925 159 -727 279 -1191 852 -1299 1605 -56 393 -7
879 130 1273 198 568 599 1056 1194 1451 830 552 2002 936 3637 1191 323 51
1098 149 1206 154 l27 1 0 -112z"/>
<path d="M45175 46480 c-1089 -56 -1993 -270 -2777 -656 -510 -252 -924 -544
-1316 -928 -929 -910 -1445 -2103 -1577 -3646 -12 -141 -34 -620 -35 -742 l0
-28 500 0 500 0 0 163 c0 753 151 1583 401 2204 450 1122 1316 1951 2406 2307
487 158 947 227 1528 227 664 1 1187 -99 1666 -316 881 -399 1449 -1201 1683
-2375 102 -512 126 -838 126 -1747 l0 -652 -52 -5 c-29 -3 -152 -13 -273 -21
-760 -54 -1675 -158 -2390 -271 -2289 -361 -4029 -977 -5180 -1834 -747 -555
-1240 -1219 -1464 -1970 -200 -668 -197 -1443 6 -2073 107 -333 270 -638 486
-910 100 -126 320 -353 447 -459 708 -596 1688 -882 2930 -855 151 4 354 13
450 22 1179 105 2238 511 3175 1215 493 371 919 827 1267 1360 85 130 136 214
304 508 144 250 389 392 680 392 326 0 602 -172 746 -465 19 -38 322 -737 674
-1552 l639 -1483 427 0 428 0 0 4328 c0 2653 -4 4433 -10 4602 -31 861 -142
1534 -360 2190 -259 780 -637 1406 -1165 1935 -845 847 -1955 1333 -3412 1495
-356 39 -1079 59 -1458 40z m3105 -7224 c0 -397 -31 -861 -86 -1266 -153
-1144 -511 -2094 -1067 -2833 -544 -722 -1164 -1195 -1866 -1421 -691 -223
-1523 -200 -2099 58 -626 280 -1006 842 -1083 1600 -17 175 -7 593 20 766 132
857 587 1536 1385 2065 985 653 2425 1054 4451 1240 138 12 271 23 298 24 l47
1 0 -234z"/>
<path d="M62910 41503 c0 -3188 3 -4802 10 -4913 66 -1040 341 -1921 826
-2651 174 -262 358 -482 601 -720 748 -731 1656 -1131 2848 -1256 136 -14 260
-18 620 -18 473 0 577 6 913 51 984 132 1814 486 2527 1080 155 129 463 434
599 594 262 306 508 673 720 1073 31 59 80 135 107 170 259 325 738 392 1100
152 89 -60 204 -184 255 -276 23 -41 324 -710 670 -1486 l629 -1413 427 0 428
0 0 7180 0 7180 -1650 0 -1650 0 0 -3702 c0 -3701 -2 -3868 -35 -4273 -111
-1316 -453 -2411 -1018 -3255 -170 -255 -293 -406 -491 -608 -531 -541 -1122
-833 -1881 -928 -212 -27 -645 -25 -860 5 -633 86 -1120 321 -1521 732 -126
131 -209 232 -304 374 -334 500 -518 1120 -570 1920 -7 106 -10 1758 -10 4947
l0 4788 -1645 0 -1645 0 0 -4747z"/>
<path d="M104954 46198 c13 -29 1350 -2888 2971 -6353 1621 -3465 2972 -6359
3001 -6432 430 -1054 436 -2262 16 -3323 -25 -63 -292 -657 -595 -1320 -302
-663 -552 -1211 -554 -1218 -4 -10 128 -12 652 -10 l658 3 3973 9295 c2186
5112 3985 9321 3999 9353 l24 57 -587 0 -587 0 -2294 -5393 c-1262 -2965
-2297 -5395 -2300 -5399 -4 -4 -1104 2422 -2445 5392 l-2439 5400 -1759 0
-1758 0 24 -52z"/>
<path d="M100710 20585 l0 -9825 1510 0 1510 0 0 9825 0 9825 -1510 0 -1510 0
0 -9825z"/>
<path d="M59923 28308 c-148 -216 -698 -1022 -1223 -1790 l-954 -1398 -1193 0
-1193 0 0 -465 0 -465 1195 0 1195 0 0 -4549 c0 -2970 4 -4611 10 -4727 34
-593 126 -1099 283 -1559 66 -192 111 -300 208 -495 233 -467 519 -818 942
-1158 782 -627 1745 -942 2877 -942 1281 0 2317 398 3159 1215 789 765 1214
2008 1248 3648 l6 307 -521 0 -522 0 -4 -22 c-3 -13 -7 -109 -10 -215 -25
-827 -175 -1634 -406 -2185 -400 -951 -1067 -1418 -2025 -1418 -574 0 -1002
156 -1331 484 -368 369 -565 917 -614 1706 -6 107 -10 1871 -10 5038 l0 4872
2580 0 2580 0 0 465 0 465 -2580 0 -2580 0 0 1790 0 1790 -424 0 -425 0 -268
-392z"/>
<path d="M91625 25423 c-637 -24 -1372 -124 -1925 -263 -1037 -260 -1864 -667
-2595 -1276 -157 -131 -474 -445 -609 -604 -408 -478 -740 -1035 -982 -1648
l-49 -123 -3 1806 -2 1805 -1645 0 -1645 0 0 -7180 0 -7180 1645 0 1645 0 0
4128 c0 2565 4 4199 10 4317 39 758 211 1429 535 2090 510 1038 1331 1865
2360 2374 571 283 1132 446 1780 517 310 34 871 33 1255 0 1357 -120 2427
-568 3206 -1341 737 -733 1178 -1735 1304 -2965 19 -187 46 -717 38 -726 -3
-2 -137 -15 -299 -29 -2322 -200 -4017 -506 -5414 -979 -466 -157 -805 -296
-1200 -491 -847 -417 -1468 -902 -1912 -1493 -302 -400 -520 -890 -617 -1382
-54 -271 -61 -352 -61 -715 1 -364 8 -450 61 -712 200 -990 861 -1771 1860
-2198 253 -109 617 -216 914 -269 687 -124 1545 -109 2297 39 1548 306 2875
1163 3717 2402 53 78 145 223 206 322 128 212 198 309 297 407 84 85 168 144
267 189 103 47 166 60 291 59 385 -3 644 -230 885 -774 30 -68 300 -718 600
-1444 l546 -1321 427 -3 427 -2 0 4297 c0 4311 -1 4479 -36 4838 -201 2107
-1299 3739 -3144 4674 -994 504 -2115 783 -3420 851 -174 9 -806 11 -1015 3z
m4325 -7050 c-1 -137 -22 -643 -35 -818 -95 -1295 -393 -2341 -899 -3155 -402
-646 -978 -1176 -1621 -1491 -372 -182 -744 -289 -1142 -330 -151 -15 -545 -6
-683 16 -730 116 -1294 491 -1602 1065 -99 183 -178 426 -213 650 -23 149 -30
436 -16 605 50 570 238 1046 584 1475 105 131 359 379 497 486 976 758 2499
1231 4820 1498 162 19 298 35 303 35 4 1 7 -16 7 -36z"/>
<path d="M36600 25390 c-1629 -102 -2847 -718 -3725 -1885 -380 -506 -693
-1122 -935 -1843 l-80 -237 0 1843 0 1842 -1685 0 -1685 0 0 -7175 0 -7175
1685 0 1685 0 0 4003 c0 3487 2 4023 15 4162 125 1327 460 2391 1022 3245 599
910 1356 1449 2263 1614 240 43 339 51 640 50 369 -1 609 -31 899 -115 747
-215 1321 -729 1657 -1484 205 -462 317 -1004 344 -1675 6 -141 10 -2147 10
-5017 l0 -4783 1680 0 1680 0 0 4843 c0 3166 -4 4899 -10 5007 -32 516 -107
967 -232 1400 -367 1274 -1193 2291 -2317 2854 -562 282 -1163 444 -1891 511
-199 19 -815 27 -1020 15z"/>
<path d="M49735 25350 c-1250 -51 -2321 -336 -3190 -848 -570 -337 -1074 -789
-1467 -1315 -691 -926 -1063 -2138 -1095 -3564 l-6 -283 496 0 497 0 0 133 c0
389 54 927 131 1312 92 460 219 843 409 1230 207 424 447 763 765 1080 632
631 1415 1000 2375 1119 398 49 899 50 1300 0 795 -97 1470 -427 1913 -932
388 -442 642 -987 786 -1685 109 -530 141 -969 141 -1934 l0 -501 -37 -6 c-21
-3 -83 -8 -138 -11 -55 -4 -235 -17 -400 -31 -3557 -290 -6107 -1056 -7570
-2275 -145 -121 -412 -386 -527 -523 -218 -259 -352 -463 -493 -751 -170 -345
-268 -672 -322 -1075 -26 -192 -26 -758 0 -940 54 -379 138 -658 293 -970 86
-172 214 -375 330 -520 93 -116 378 -400 496 -494 550 -438 1250 -695 2128
-781 219 -22 741 -30 982 -16 1146 68 2145 396 3071 1008 341 225 605 440 877
712 350 351 652 750 896 1181 201 357 260 422 457 515 117 56 184 70 337 70
143 0 204 -12 322 -59 140 -57 283 -174 366 -300 33 -52 236 -511 707 -1604
l660 -1531 428 -1 427 0 0 4393 c0 2772 -4 4479 -10 4627 -92 2157 -825 3673
-2235 4620 -1027 691 -2435 1017 -4100 950z m3055 -7067 c-1 -182 -21 -674
-35 -865 -108 -1440 -500 -2592 -1178 -3463 -612 -786 -1340 -1275 -2137
-1435 -483 -97 -975 -90 -1416 20 -576 144 -996 474 -1239 975 -140 288 -201
563 -212 952 -54 1977 1495 3218 4638 3717 426 68 1301 167 1542 175 l37 1 0
-77z"/>
<path d="M67410 20400 c0 -4744 1 -4868 36 -5215 136 -1363 667 -2461 1574
-3258 526 -462 1145 -779 1865 -957 468 -116 885 -162 1450 -162 714 0 1295
87 1885 282 378 124 773 314 1097 527 704 461 1297 1129 1738 1954 88 164 123
215 197 285 102 96 226 164 363 200 94 24 293 25 385 0 218 -57 393 -178 508
-350 32 -49 248 -522 687 -1508 l640 -1438 428 0 427 0 0 7180 0 7180 -1645 0
-1645 0 0 -3537 c0 -3521 -3 -3912 -35 -4343 -117 -1583 -567 -2852 -1334
-3765 -115 -137 -331 -349 -472 -461 -463 -371 -960 -580 -1574 -660 -165 -22
-646 -25 -810 -6 -640 77 -1128 295 -1534 687 -224 217 -396 454 -541 749
-207 422 -314 830 -377 1438 -16 150 -17 545 -20 5031 l-3 4867 -1645 0 -1645
0 0 -4720z"/>
</g>
</svg>
